<?xml version="1.0" encoding="UTF-8"?>
<svg version="1.1" xmlns="http://www.w3.org/2000/svg" width="225" height="225">
<path d="M0 0 C74.25 0 148.5 0 225 0 C225 74.25 225 148.5 225 225 C150.75 225 76.5 225 0 225 C0 150.75 0 76.5 0 0 Z " fill="#FEFEFE" transform="translate(0,0)"/>
<path d="M0 0 C1.43956055 -0.0309375 1.43956055 -0.0309375 2.90820312 -0.0625 C9.0569618 -0.09607684 13.61382081 0.59556681 19.1875 3.25 C22.69506464 6.93743975 24.62426741 9.82387506 24.52734375 15.00390625 C21.42141716 35.53158198 0.92704325 53.0810041 -14.90185547 64.79638672 C-44.87351493 86.48544897 -84.32424399 109.83233484 -122.8125 106.25 C-127.74066056 105.3711785 -130.79167564 104.29634497 -134.3125 100.6875 C-137.31534679 95.80787397 -137.59681365 91.93056295 -136.8125 86.25 C-132.39962775 73.84184999 -123.5065915 64.7967149 -114.4375 55.625 C-113.72287598 54.90086914 -113.00825195 54.17673828 -112.27197266 53.43066406 C-111.5969873 52.7600293 -110.92200195 52.08939453 -110.2265625 51.3984375 C-109.31318115 50.48843994 -109.31318115 50.48843994 -108.38134766 49.56005859 C-106.8125 48.25 -106.8125 48.25 -104.8125 48.25 C-104.8125 48.91 -104.8125 49.57 -104.8125 50.25 C-105.91725231 51.25541491 -107.07423243 52.20363828 -108.25 53.125 C-116.19010735 59.8945409 -124.49081589 69.76663219 -126.1484375 80.40625 C-126.36318591 84.83337102 -125.75418245 87.92874562 -122.8125 91.25 C-117.79916422 93.82864462 -113.60306192 94.77257648 -107.9375 94.6875 C-107.19918945 94.67847656 -106.46087891 94.66945313 -105.70019531 94.66015625 C-89.00160293 94.15005924 -72.13594771 87.91806397 -57.32421875 80.50390625 C-54.8125 79.25 -54.8125 79.25 -52.8125 79.25 C-52.8125 54.83 -52.8125 30.41 -52.8125 5.25 C-36.5625 13.375 -36.5625 13.375 -28.8125 18.25 C-28.4825 16.93 -28.1525 15.61 -27.8125 14.25 C-24.8425 14.25 -21.8725 14.25 -18.8125 14.25 C-18.84472656 14.91386719 -18.87695312 15.57773438 -18.91015625 16.26171875 C-18.8721509 19.15434809 -18.71699058 21.4932512 -17.8125 24.25 C-15.76596223 25.48008907 -15.76596223 25.48008907 -13.3125 26.25 C-10.84765625 27.29296875 -10.84765625 27.29296875 -8.8125 29.25 C-7.27392792 35.04745516 -7.65813738 41.30395206 -7.8125 47.25 C1.89044644 38.14111151 10.8952835 28.10315085 12.6875 14.4375 C12.07646274 10.54213748 11.03925279 8.94760399 8.1875 6.25 C3.51356029 3.69895657 -1.1882298 3.90704078 -6.375 3.9375 C-7.26380859 3.93806396 -8.15261719 3.93862793 -9.06835938 3.93920898 C-15.178702 4.0241983 -20.66137526 4.78197229 -26.5 6.69140625 C-29.06052049 7.30991036 -30.3282733 6.96617641 -32.8125 6.25 C-30.08411565 5.43479365 -27.35485583 4.62275157 -24.625 3.8125 C-23.85607422 3.58240234 -23.08714844 3.35230469 -22.29492188 3.11523438 C-21.54404297 2.89287109 -20.79316406 2.67050781 -20.01953125 2.44140625 C-18.99049683 2.13505249 -18.99049683 2.13505249 -17.94067383 1.82250977 C-11.90791694 0.19961027 -6.21674254 0.03300195 0 0 Z " fill="#5A5B5F" transform="translate(167.8125,57.75)"/>
<path d="M0 0 C16.25 8.125 16.25 8.125 24 13 C24.33 11.68 24.66 10.36 25 9 C27.97 9 30.94 9 34 9 C33.96777344 9.66386719 33.93554688 10.32773438 33.90234375 11.01171875 C33.94044143 13.91137585 34.11214812 16.2307477 35 19 C37.73604033 21.34886481 40.6482468 22.71346847 44 24 C45.64094141 41.67167672 45.64094141 41.67167672 41.80859375 47.109375 C35.53467153 52 35.53467153 52 33 52 C33 50.02 33 48.04 33 46 C29.7 46 26.4 46 23 46 C23 49.3 23 52.6 23 56 C24.65 56 26.3 56 28 56 C24.22169338 59.13670738 20.26388595 61.86942824 16.125 64.5 C15.53847656 64.87769531 14.95195312 65.25539063 14.34765625 65.64453125 C2.84683741 73 2.84683741 73 0 73 C0 48.91 0 24.82 0 0 Z " fill="#1A4287" transform="translate(115,63)"/>
<path d="M0 0 C1.43956055 -0.0309375 1.43956055 -0.0309375 2.90820312 -0.0625 C9.0569618 -0.09607684 13.61382081 0.59556681 19.1875 3.25 C22.69506464 6.93743975 24.62426741 9.82387506 24.52734375 15.00390625 C21.39737559 35.6904774 0.73023696 53.18808221 -15.17578125 65.00585938 C-17.7245367 66.8635928 -20.29334217 68.68831029 -22.875 70.5 C-23.69685791 71.08587891 -24.51871582 71.67175781 -25.36547852 72.27539062 C-26.14334717 72.80841797 -26.92121582 73.34144531 -27.72265625 73.890625 C-28.41496338 74.37047852 -29.10727051 74.85033203 -29.82055664 75.34472656 C-31.8125 76.25 -31.8125 76.25 -33.95874023 75.98730469 C-36.17216687 75.10694799 -37.32959134 74.10363582 -38.8125 72.25 C-38.8125 71.59 -38.8125 70.93 -38.8125 70.25 C-36.83809073 68.7868217 -34.88011129 67.44286936 -32.8125 66.125 C-32.24015625 65.75246094 -31.6678125 65.37992187 -31.078125 64.99609375 C-29.66028218 64.07449592 -28.23689275 63.16144179 -26.8125 62.25 C-27.8025 61.92 -28.7925 61.59 -29.8125 61.25 C-29.8125 57.95 -29.8125 54.65 -29.8125 51.25 C-26.5125 51.25 -23.2125 51.25 -19.8125 51.25 C-19.4825 52.9 -19.1525 54.55 -18.8125 56.25 C-5.07437068 45.38789028 10.26314215 32.92322857 12.6875 14.4375 C12.07646274 10.54213748 11.03925279 8.94760399 8.1875 6.25 C3.51356029 3.69895657 -1.1882298 3.90704078 -6.375 3.9375 C-7.26380859 3.93806396 -8.15261719 3.93862793 -9.06835938 3.93920898 C-15.178702 4.0241983 -20.66137526 4.78197229 -26.5 6.69140625 C-29.06052049 7.30991036 -30.3282733 6.96617641 -32.8125 6.25 C-30.08411565 5.43479365 -27.35485583 4.62275157 -24.625 3.8125 C-23.47161133 3.46735352 -23.47161133 3.46735352 -22.29492188 3.11523438 C-21.16860352 2.78168945 -21.16860352 2.78168945 -20.01953125 2.44140625 C-19.3335083 2.23717041 -18.64748535 2.03293457 -17.94067383 1.82250977 C-11.90791694 0.19961027 -6.21674254 0.03300195 0 0 Z " fill="#5C5D62" transform="translate(167.8125,57.75)"/>
<path d="M0 0 C-0.21459961 2.31152344 -0.21459961 2.31152344 -1 5 C-2.97094727 6.61816406 -2.97094727 6.61816406 -5.56640625 8.015625 C-6.52023193 8.54067627 -7.47405762 9.06572754 -8.45678711 9.60668945 C-9.48167236 10.14898193 -10.50655762 10.69127441 -11.5625 11.25 C-12.59705322 11.81485107 -13.63160645 12.37970215 -14.69750977 12.96166992 C-16.79523066 14.10689985 -18.89638908 15.24585624 -21.00097656 16.37841797 C-25.17705473 18.63643744 -29.30704092 20.97249934 -33.4375 23.3125 C-35.603125 24.529375 -37.76875 25.74625 -40 27 C-40 35.91 -40 44.82 -40 54 C-37.256875 51.31875 -34.51375 48.6375 -31.6875 45.875 C-30.82729248 45.04210449 -29.96708496 44.20920898 -29.08081055 43.35107422 C-25.16154312 39.47481468 -22.02105715 36.16400724 -20 31 C-24.29 30.34 -28.58 29.68 -33 29 C-30.43748811 26.43748811 -29.36893409 26.70221628 -25.8125 26.6875 C-19.61455336 26.80918743 -15.52930893 27.88084927 -10.6875 31.9375 C-9.07452039 33.90891952 -8.13167421 35.73665158 -7 38 C-5.70529025 39.37086915 -4.37849103 40.71340837 -3 42 C-3.99 42.99 -4.98 43.98 -6 45 C-9.16115776 43.63016497 -9.9927092 43.0109362 -12 40 C-17.60296477 40.32468889 -20.26830259 42.61119456 -23.9375 46.5625 C-24.46110107 47.10608154 -24.98470215 47.64966309 -25.52416992 48.2097168 C-28.92730083 51.7687565 -32.20612522 55.42984455 -35.40234375 59.17578125 C-38.10645821 62.26336427 -40.95418266 65.24671879 -44 68 C-44.33 68 -44.66 68 -45 68 C-45 53.48 -45 38.96 -45 24 C-41.431875 22.081875 -37.86375 20.16375 -34.1875 18.1875 C-25.26192714 13.3765703 -16.42778783 8.44081686 -7.71557617 3.25268555 C-6.62273315 2.60746948 -6.62273315 2.60746948 -5.5078125 1.94921875 C-4.55865967 1.38207153 -4.55865967 1.38207153 -3.59033203 0.8034668 C-2 0 -2 0 0 0 Z " fill="#5D5E62" transform="translate(111,63)"/>
<path d="M0 0 C1.38938077 1.96147874 2.7260411 3.96166576 4 6 C3.34 6.99 2.68 7.98 2 9 C2.59167969 8.77957031 3.18335938 8.55914062 3.79296875 8.33203125 C6 8 6 8 7.73828125 9.07421875 C8.51751953 9.87279297 8.51751953 9.87279297 9.3125 10.6875 C9.84488281 11.20699219 10.37726563 11.72648437 10.92578125 12.26171875 C12 14 12 14 11.9375 15.9375 C10.67205415 18.72148087 8.9605433 20.27754962 6.6875 22.3125 C5.90761719 23.03050781 5.12773438 23.74851563 4.32421875 24.48828125 C2 26 2 26 -0.23046875 25.73046875 C-1.10638672 25.36888672 -1.10638672 25.36888672 -2 25 C-2.33 25 -2.66 25 -3 25 C-2.34 25.99 -1.68 26.98 -1 28 C-3.88162782 29.92108521 -5.19101172 29.98726589 -8.75 29.75 C-13.41533705 29.5924464 -15.91063944 31.63797403 -19.43359375 34.4921875 C-21.10644207 35.93434356 -21.10644207 35.93434356 -22 38 C-25.3 38 -28.6 38 -32 38 C-31.8046875 35.71484375 -31.8046875 35.71484375 -31 33 C-28.8203125 31.19140625 -28.8203125 31.19140625 -26.125 29.5625 C-21.94625307 26.80250025 -19.5424372 24.93579903 -18 20 C-17.2863276 16.26228166 -17.2863276 16.26228166 -17 13 C-16.01 12.67 -15.02 12.34 -14 12 C-13.67 11.01 -13.34 10.02 -13 9 C-11.24710944 7.37090909 -9.42426823 5.81595653 -7.5625 4.3125 C-6.57378906 3.50425781 -5.58507812 2.69601563 -4.56640625 1.86328125 C-2 0 -2 0 0 0 Z " fill="#5B5C60" transform="translate(98,109)"/>
<path d="M0 0 C0 7.59 0 15.18 0 23 C-11.55 23 -23.1 23 -35 23 C-31.89158307 20.51326646 -29.29560658 18.45593786 -25.9609375 16.484375 C-25.22029053 16.04134033 -24.47964355 15.59830566 -23.71655273 15.1418457 C-22.94384033 14.68253662 -22.17112793 14.22322754 -21.375 13.75 C-14.96140262 9.89508426 -8.83336404 5.89170267 -2.87109375 1.36328125 C-1 0 -1 0 0 0 Z " fill="#174086" transform="translate(159,123)"/>
<path d="M0 0 C0.33 0.99 0.66 1.98 1 3 C3.17345127 6.25814691 3.17345127 6.25814691 6 9 C8.71305777 9.50379029 8.71305777 9.50379029 11 9 C10.67 9.66 10.34 10.32 10 11 C9.34 10.67 8.68 10.34 8 10 C9.05875074 13.40312738 10.00902154 16.01353231 12 19 C9.11837218 20.92108521 7.80898828 20.98726589 4.25 20.75 C-0.41533705 20.5924464 -2.91063944 22.63797403 -6.43359375 25.4921875 C-8.10644207 26.93434356 -8.10644207 26.93434356 -9 29 C-12.3 29 -15.6 29 -19 29 C-18.8046875 26.71484375 -18.8046875 26.71484375 -18 24 C-15.8203125 22.19140625 -15.8203125 22.19140625 -13.125 20.5625 C-8.94625307 17.80250025 -6.5424372 15.93579903 -5 11 C-4.2863276 7.26228166 -4.2863276 7.26228166 -4 4 C-3.01 3.67 -2.02 3.34 -1 3 C-0.67 2.01 -0.34 1.02 0 0 Z " fill="#5F6064" transform="translate(85,118)"/>
<path d="M0 0 C2 2 2 2 2.20254517 4.25259399 C2.18033905 5.18969208 2.15813293 6.12679016 2.13525391 7.09228516 C2.10499619 8.68370834 2.10499619 8.68370834 2.0741272 10.30728149 C2.04193085 11.45626923 2.0097345 12.60525696 1.9765625 13.7890625 C1.95153656 14.96262299 1.92651062 16.13618347 1.90072632 17.3453064 C1.81834362 21.10549019 1.72182395 24.86516298 1.625 28.625 C1.56677918 31.16924974 1.50947553 33.71352065 1.453125 36.2578125 C1.31273761 42.50549315 1.1607322 48.75281146 1 55 C1.61963623 55.29729004 2.23927246 55.59458008 2.87768555 55.90087891 C5.24479867 57.12677828 6.89605808 58.52714653 8.8125 60.375 C9.43769531 60.96023437 10.06289062 61.54546875 10.70703125 62.1484375 C12 64 12 64 11.9765625 66.0546875 C10.65308255 68.69105956 9.16149861 69.40267912 6.5625 70.75 C5.75941406 71.17796875 4.95632812 71.6059375 4.12890625 72.046875 C2 73 2 73 0 73 C0 48.91 0 24.82 0 0 Z " fill="#103982" transform="translate(115,63)"/>
<path d="M0 0 C3.3 0 6.6 0 10 0 C10 3.3 10 6.6 10 10 C6.7 10 3.4 10 0 10 C0 6.7 0 3.4 0 0 Z " fill="#EBEDF2" transform="translate(126,109)"/>
<path d="M0 0 C0.83595703 0.00451172 1.67191406 0.00902344 2.53320312 0.01367188 C4.58466649 0.02539452 6.63609273 0.04332797 8.6875 0.0625 C8.0275 1.3825 7.3675 2.7025 6.6875 4.0625 C6.08389648 4.04678955 5.48029297 4.0310791 4.85839844 4.01489258 C-10.31489875 3.50300608 -10.31489875 3.50300608 -25.0703125 6.50390625 C-27.59124766 7.1319441 -28.85982003 6.76791111 -31.3125 6.0625 C-28.58411565 5.24729365 -25.85485583 4.43525157 -23.125 3.625 C-21.97161133 3.27985352 -21.97161133 3.27985352 -20.79492188 2.92773438 C-13.65080172 0.81209364 -7.45337611 -0.07647505 0 0 Z " fill="#78797C" transform="translate(166.3125,57.9375)"/>
<path d="M0 0 C0.9075 0.66 1.815 1.32 2.75 2 C5.93175815 4.34939828 5.93175815 4.34939828 10 4 C9.67 4.66 9.34 5.32 9 6 C8.34 5.67 7.68 5.34 7 5 C8.05875074 8.40312738 9.00902154 11.01353231 11 14 C7.93753253 15.78409802 5.77920727 16.22880021 2.25 16.125 C1.45078125 16.10695312 0.6515625 16.08890625 -0.171875 16.0703125 C-0.77515625 16.04710937 -1.3784375 16.02390625 -2 16 C-2 14.68 -2 13.36 -2 12 C2.22222222 8 2.22222222 8 5 8 C4.175 7.05125 3.35 6.1025 2.5 5.125 C0 2.25 0 2.25 0 0 Z " fill="#818285" transform="translate(86,123)"/>
<path d="M0 0 C2.97 0 5.94 0 9 0 C9 2.97 9 5.94 9 9 C6.03 9 3.06 9 0 9 C0 6.03 0 3.06 0 0 Z " fill="#FFFFFF" transform="translate(138,98)"/>
<path d="M0 0 C2.97 0 5.94 0 9 0 C9 2.97 9 5.94 9 9 C6.03 9 3.06 9 0 9 C0 6.03 0 3.06 0 0 Z " fill="#FDFDFD" transform="translate(126,98)"/>
<path d="M0 0 C0.66 0 1.32 0 2 0 C2 2.97 2 5.94 2 9 C4.97 9 7.94 9 11 9 C11 9.66 11 10.32 11 11 C8.03 11 5.06 11 2 11 C2 14.3 2 17.6 2 21 C1.34 21 0.68 21 0 21 C0 17.7 0 14.4 0 11 C-3.3 11 -6.6 11 -10 11 C-10 10.34 -10 9.68 -10 9 C-6.7 9 -3.4 9 0 9 C0 6.03 0 3.06 0 0 Z " fill="#013480" transform="translate(136,98)"/>
<path d="M0 0 C2.97 0 5.94 0 9 0 C9.1875 3.375 9.1875 3.375 9 7 C5.5647952 9.29013653 4.014669 9.17842973 0 9 C0 6.03 0 3.06 0 0 Z " fill="#FCFDFD" transform="translate(138,110)"/>
<path d="M0 0 C2.75345062 1.20765378 4.75701691 2.08951943 7 4 C7.9375 7.25 7.9375 7.25 8 10 C4.78956118 8.61811547 2.95063635 7.07578097 0.75 4.375 C0.22921875 3.74335937 -0.2915625 3.11171875 -0.828125 2.4609375 C-1.21484375 1.97882813 -1.6015625 1.49671875 -2 1 C-1.34 0.67 -0.68 0.34 0 0 Z " fill="#616266" transform="translate(94,91)"/>
<path d="M0 0 C1.32 0.99 2.64 1.98 4 3 C3.8125 4.875 3.8125 4.875 3 7 C0.6875 8.4375 0.6875 8.4375 -2 9 C-4.3125 7.625 -4.3125 7.625 -6 6 C-5.01 5.67 -4.02 5.34 -3 5 C-1.8499169 3.03327085 -1.8499169 3.03327085 -1 1 C-0.67 0.67 -0.34 0.34 0 0 Z " fill="#315493" transform="translate(139,81)"/>
<path d="M0 0 C0.99 1.32 1.98 2.64 3 4 C2.34 5.32 1.68 6.64 1 8 C1.99 8.33 2.98 8.66 4 9 C4 12.3 4 15.6 4 19 C3.67 19 3.34 19 3 19 C3 16.03 3 13.06 3 10 C0.03 10 -2.94 10 -6 10 C-6 9.67 -6 9.34 -6 9 C-4.35 9 -2.7 9 -1 9 C-1.34786708 7.02463255 -1.34786708 7.02463255 -2 5 C-2.66 4.67 -3.32 4.34 -4 4 C-2.68 3.67 -1.36 3.34 0 3 C0 2.01 0 1.02 0 0 Z " fill="#647CA9" transform="translate(132,88)"/>
<path d="M0 0 C-1.37154504 2.95409701 -2.98863724 5.44008376 -5 8 C-6.32 6.68 -7.64 5.36 -9 4 C-8.67 3.01 -8.34 2.02 -8 1 C-5.29120665 -0.35439668 -2.99066732 -0.06501451 0 0 Z " fill="#67676B" transform="translate(75,152)"/>
<path d="M0 0 C2 1 2 1 4 3 C4.66 2.01 5.32 1.02 6 0 C6.99 1.32 7.98 2.64 9 4 C5.00439392 6.83022097 1.57262677 5.76210446 -3 5 C-2.01 4.34 -1.02 3.68 0 3 C0 2.01 0 1.02 0 0 Z " fill="#595A5E" transform="translate(88,133)"/>
<path d="M0 0 C0.66 0 1.32 0 2 0 C2 0.66 2 1.32 2 2 C7.28 2 12.56 2 18 2 C18 2.33 18 2.66 18 3 C11.07 3 4.14 3 -3 3 C-2.01 2.01 -1.02 1.02 0 0 Z " fill="#053983" transform="translate(127,143)"/>
<path d="M0 0 C0.66 0.33 1.32 0.66 2 1 C1.67 2.32 1.34 3.64 1 5 C-0.32 4.67 -1.64 4.34 -3 4 C-3 3.01 -3 2.02 -3 1 C-2.01 0.67 -1.02 0.34 0 0 Z " fill="#254B8C" transform="translate(130,92)"/>
</svg>
