<?xml version="1.0" encoding="UTF-8"?>
<svg version="1.1" xmlns="http://www.w3.org/2000/svg" width="217" height="50">
<path d="M0 0 C2.97 0 5.94 0 9 0 C9 0.66 9 1.32 9 2 C9.89203125 1.97679687 10.7840625 1.95359375 11.703125 1.9296875 C12.87359375 1.91164062 14.0440625 1.89359375 15.25 1.875 C16.99023438 1.84019531 16.99023438 1.84019531 18.765625 1.8046875 C23.60706236 2.09704483 23.60706236 2.09704483 26 4 C26.495 6.475 26.495 6.475 27 9 C32.28 9 37.56 9 43 9 C42.67 11.31 42.34 13.62 42 16 C34.41 16.33 26.82 16.66 19 17 C24.94 17.33 30.88 17.66 37 18 C36.67 20.31 36.34 22.62 36 25 C29.4 25 22.8 25 16 25 C15.505 27.475 15.505 27.475 15 30 C15.52464844 29.67386719 16.04929688 29.34773438 16.58984375 29.01171875 C19.6982049 27.70691237 22.20055634 27.7704279 25.5625 27.8125 C27.26599609 27.82216797 27.26599609 27.82216797 29.00390625 27.83203125 C32 28 32 28 35 29 C35.495 27.515 35.495 27.515 36 26 C38.64 26 41.28 26 44 26 C44 29.63 44 33.26 44 37 C41.87506859 37.02693575 39.75004088 37.04636628 37.625 37.0625 C36.44164063 37.07410156 35.25828125 37.08570313 34.0390625 37.09765625 C31 37 31 37 29 36 C29 37.65 29 39.3 29 41 C24.72650593 43.48458957 22.75205543 44.18801386 18 43 C14.77888408 43.38333662 14.77888408 43.38333662 12 44 C12 44.66 12 45.32 12 46 C6.18408411 46.23738432 1.62877342 45.62368464 -4 44 C-5.66965451 44.31802943 -7.33678518 44.64984951 -9 45 C-11.75 44.25 -11.75 44.25 -14 43 C-14.33 42.01 -14.66 41.02 -15 40 C-17.0032149 39.12203121 -17.0032149 39.12203121 -19.375 38.5625 C-22.51107074 37.62516884 -23.77207508 37.24173856 -26.0625 34.8125 C-26.371875 34.214375 -26.68125 33.61625 -27 33 C-26.67 32.34 -26.34 31.68 -26 31 C-27.25541557 28.48916886 -28.50063488 28.12874554 -31 27 C-31 25.02 -31 23.04 -31 21 C-30.01 20.67 -29.02 20.34 -28 20 C-27.26676204 17.98491642 -27.26676204 17.98491642 -27 16 C-28.65 16 -30.3 16 -32 16 C-30.69468936 12.08406808 -29.55680172 11.10504591 -26 9 C-22.63895535 8.66595122 -19.36557034 8.76473683 -16 9 C-16.33 7.68 -16.66 6.36 -17 5 C-12.74525833 2.52631298 -10.73821335 1.7850735 -6 3 C-3.3015411 2.77802187 -3.3015411 2.77802187 -1 2 C-0.67 1.34 -0.34 0.68 0 0 Z M3 3 C2.34 3.66 1.68 4.32 1 5 C2.65 5 4.3 5 6 5 C5.01 4.34 4.02 3.68 3 3 Z M7 5 C6.67 6.32 6.34 7.64 6 9 C8.31 9 10.62 9 13 9 C10.28996707 6.32668287 10.28996707 6.32668287 7 5 Z M0 5 C-1.98 5.99 -3.96 6.98 -6 8 C-6 8.33 -6 8.66 -6 9 C-3.69 9 -1.38 9 1 9 C0.67 7.68 0.34 6.36 0 5 Z M-5 16 C-5 17.98 -5 19.96 -5 22 C-4.67 21.34 -4.34 20.68 -4 20 C-1.03 20.33 1.94 20.66 5 21 C5 19.35 5 17.7 5 16 C1.7 16 -1.6 16 -5 16 Z M-18 20 C-18 21.98 -18 23.96 -18 26 C-17.67 26 -17.34 26 -17 26 C-17 24.02 -17 22.04 -17 20 C-17.33 20 -17.66 20 -18 20 Z M-2 23 C2 24 2 24 2 24 Z M-5 24 C-5 27.96 -5 31.92 -5 36 C1.54486865 38.68507432 8.17573725 38.76110006 15 37 C15 35.35 15 33.7 15 32 C14.61199219 32.47050781 14.22398438 32.94101562 13.82421875 33.42578125 C11.52497076 35.40992887 9.78688189 35.68533163 6.8125 36.1875 C5.91144531 36.34605469 5.01039062 36.50460938 4.08203125 36.66796875 C3.39496094 36.77753906 2.70789062 36.88710938 2 37 C2.33 34.36 2.66 31.72 3 29 C0.35261084 27.5393715 -0.89448334 27 -4 27 C-4.33 26.01 -4.66 25.02 -5 24 Z M-17 27 C-16 29 -16 29 -16 29 Z " fill="#131338" transform="translate(43,2)"/>
<path d="M0 0 C2.97 0 5.94 0 9 0 C9 0.66 9 1.32 9 2 C9.89203125 1.97679687 10.7840625 1.95359375 11.703125 1.9296875 C12.87359375 1.91164062 14.0440625 1.89359375 15.25 1.875 C16.99023438 1.84019531 16.99023438 1.84019531 18.765625 1.8046875 C23.60706236 2.09704483 23.60706236 2.09704483 26 4 C26.75 6.625 26.75 6.625 27 9 C26.14277344 9.02578125 25.28554687 9.0515625 24.40234375 9.078125 C17.50714484 9.42016418 12.5853905 9.81095712 7 14 C6.67 14.66 6.34 15.32 6 16 C2.37 16 -1.26 16 -5 16 C-5.33 21.28 -5.66 26.56 -6 32 C-9.12889911 32 -11.1244315 31.95852283 -14 31 C-16.49505962 28.50494038 -16.35948376 27.32671112 -16.625 23.875 C-16.69976562 22.96492188 -16.77453125 22.05484375 -16.8515625 21.1171875 C-16.90054687 20.41851563 -16.94953125 19.71984375 -17 19 C-17.309375 19.94875 -17.61875 20.8975 -17.9375 21.875 C-19 25 -19 25 -20 27 C-19.60061233 29.09821215 -19.60061233 29.09821215 -19 31 C-20.81358154 30.52494322 -22.62584179 30.04483958 -24.4375 29.5625 C-25.44683594 29.29566406 -26.45617187 29.02882813 -27.49609375 28.75390625 C-30 28 -30 28 -31 27 C-31.04080783 25.00041636 -31.04254356 22.99954746 -31 21 C-30.01 20.67 -29.02 20.34 -28 20 C-27.26676204 17.98491642 -27.26676204 17.98491642 -27 16 C-28.65 16 -30.3 16 -32 16 C-30.69468936 12.08406808 -29.55680172 11.10504591 -26 9 C-22.63895535 8.66595122 -19.36557034 8.76473683 -16 9 C-16.33 7.68 -16.66 6.36 -17 5 C-12.74525833 2.52631298 -10.73821335 1.7850735 -6 3 C-3.3015411 2.77802187 -3.3015411 2.77802187 -1 2 C-0.67 1.34 -0.34 0.68 0 0 Z M3 3 C2.34 3.66 1.68 4.32 1 5 C2.65 5 4.3 5 6 5 C5.01 4.34 4.02 3.68 3 3 Z M7 5 C6.67 6.32 6.34 7.64 6 9 C8.31 9 10.62 9 13 9 C10.28996707 6.32668287 10.28996707 6.32668287 7 5 Z M0 5 C-1.98 5.99 -3.96 6.98 -6 8 C-6 8.33 -6 8.66 -6 9 C-3.69 9 -1.38 9 1 9 C0.67 7.68 0.34 6.36 0 5 Z " fill="#0B0A35" transform="translate(43,2)"/>
<path d="M0 0 C1.29550781 0.00644531 2.59101562 0.01289063 3.92578125 0.01953125 C5.28906519 0.03624057 6.65234644 0.05317044 8.015625 0.0703125 C9.39452485 0.0803491 10.77343165 0.08947377 12.15234375 0.09765625 C15.52361382 0.12123157 18.89453136 0.1541398 22.265625 0.1953125 C21.935625 2.5053125 21.605625 4.8153125 21.265625 7.1953125 C13.675625 7.5253125 6.085625 7.8553125 -1.734375 8.1953125 C4.205625 8.5253125 10.145625 8.8553125 16.265625 9.1953125 C15.935625 11.5053125 15.605625 13.8153125 15.265625 16.1953125 C8.665625 16.1953125 2.065625 16.1953125 -4.734375 16.1953125 C-5.394375 19.1653125 -6.054375 22.1353125 -6.734375 25.1953125 C-9.74509824 28.03399442 -11.40124283 28.17892895 -15.546875 28.3828125 C-16.59875 28.3209375 -17.650625 28.2590625 -18.734375 28.1953125 C-18.404375 25.5553125 -18.074375 22.9153125 -17.734375 20.1953125 C-18.724375 19.8653125 -19.714375 19.5353125 -20.734375 19.1953125 C-18.754375 18.8653125 -16.774375 18.5353125 -14.734375 18.1953125 C-15.394375 17.5353125 -16.054375 16.8753125 -16.734375 16.1953125 C-17.09839229 11.44442016 -16.37075064 8.00368155 -13.421875 4.2578125 C-8.75522912 0.6764331 -5.94355781 -0.05213647 0 0 Z " fill="#11B698" transform="translate(63.734375,10.8046875)"/>
<path d="M0 0 C-0.06960937 1.13888672 -0.06960937 1.13888672 -0.140625 2.30078125 C-0.17671875 3.29464844 -0.2128125 4.28851563 -0.25 5.3125 C-0.31960937 6.79169922 -0.31960937 6.79169922 -0.390625 8.30078125 C-0.26118768 11.11855964 -0.26118768 11.11855964 1.890625 12.85546875 C3.89300396 14.15897075 3.89300396 14.15897075 6 14 C6 10.7 6 7.4 6 4 C6.33 4 6.66 4 7 4 C7.04898438 4.63808594 7.09796875 5.27617187 7.1484375 5.93359375 C7.22320312 6.75988281 7.29796875 7.58617187 7.375 8.4375 C7.44460937 9.26121094 7.51421875 10.08492187 7.5859375 10.93359375 C7.72257812 11.61550781 7.85921875 12.29742187 8 13 C8.66 13.33 9.32 13.66 10 14 C10 9.71 10 5.42 10 1 C10.66 1.33 11.32 1.66 12 2 C14.3329866 2.04022391 16.66706666 2.04320247 19 2 C20.33333333 4.66666667 21.66666667 7.33333333 23 10 C21.741875 10.020625 20.48375 10.04125 19.1875 10.0625 C18.47980469 10.07410156 17.77210937 10.08570313 17.04296875 10.09765625 C15 10 15 10 12 9 C12 11.97 12 14.94 12 18 C13.65 18.33 15.3 18.66 17 19 C15.02 19.99 15.02 19.99 13 21 C13.33 22.65 13.66 24.3 14 26 C9.3709597 26.90765496 6.17006403 27.45297884 2 25 C1.67 24.01 1.34 23.02 1 22 C-1.0032149 21.12203121 -1.0032149 21.12203121 -3.375 20.5625 C-6.51107074 19.62516884 -7.77207508 19.24173856 -10.0625 16.8125 C-10.371875 16.214375 -10.68125 15.61625 -11 15 C-10.67 14.34 -10.34 13.68 -10 13 C-10.33 12.01 -10.66 11.02 -11 10 C-8.69 10.66 -6.38 11.32 -4 12 C-4.17789062 11.07767578 -4.17789062 11.07767578 -4.359375 10.13671875 C-4.74563976 7.71483872 -5.04350612 5.45374501 -5 3 C-2.27272727 0 -2.27272727 0 0 0 Z M-2 2 C-2 3.98 -2 5.96 -2 8 C-1.67 8 -1.34 8 -1 8 C-1 6.02 -1 4.04 -1 2 C-1.33 2 -1.66 2 -2 2 Z M14 5 C18 6 18 6 18 6 Z " fill="#121238" transform="translate(27,20)"/>
<path d="M0 0 C2.97 0 5.94 0 9 0 C9 0.66 9 1.32 9 2 C9.89203125 1.97679687 10.7840625 1.95359375 11.703125 1.9296875 C12.87359375 1.91164062 14.0440625 1.89359375 15.25 1.875 C16.99023438 1.84019531 16.99023438 1.84019531 18.765625 1.8046875 C23.60706236 2.09704483 23.60706236 2.09704483 26 4 C26.75 6.625 26.75 6.625 27 9 C26.10796875 9.06058594 25.2159375 9.12117187 24.296875 9.18359375 C22.54117188 9.30927734 22.54117188 9.30927734 20.75 9.4375 C19.58984375 9.51871094 18.4296875 9.59992187 17.234375 9.68359375 C14.69022624 9.93247787 12.44046752 10.28114942 10 11 C10 9.68 10 8.36 10 7 C9.34 6.67 8.68 6.34 8 6 C7.01 7.485 7.01 7.485 6 9 C3.375 9.1875 3.375 9.1875 1 9 C0.67 8.01 0.34 7.02 0 6 C-0.845625 6.495 -1.69125 6.99 -2.5625 7.5 C-6.41027285 9.17902815 -8.84491725 9.38472988 -13 9 C-15.4375 8 -15.4375 8 -17 7 C-16.67 6.01 -16.34 5.02 -16 4 C-9.84210526 1.71929825 -9.84210526 1.71929825 -6 3 C-3.38901957 2.76129575 -3.38901957 2.76129575 -1 2 C-0.67 1.34 -0.34 0.68 0 0 Z M3 3 C2.34 3.66 1.68 4.32 1 5 C2.65 5 4.3 5 6 5 C5.01 4.34 4.02 3.68 3 3 Z " fill="#17163B" transform="translate(43,2)"/>
<path d="M0 0 C2.27057377 -0.05398987 4.54151288 -0.09278742 6.8125 -0.125 C8.07707031 -0.14820312 9.34164062 -0.17140625 10.64453125 -0.1953125 C14 0 14 0 17 2 C16.835 2.78375 16.67 3.5675 16.5 4.375 C15.78202136 8.14438785 16.21545182 9.65397217 18 13 C12.43548387 13.37096774 12.43548387 13.37096774 10.3125 11.5625 C9.879375 11.046875 9.44625 10.53125 9 10 C8.01 9.67 7.02 9.34 6 9 C6 10.32 6 11.64 6 13 C4.33388095 13.042721 2.66617115 13.04063832 1 13 C0 12 0 12 -0.09765625 9.27734375 C-0.08605469 8.17519531 -0.07445312 7.07304688 -0.0625 5.9375 C-0.05347656 4.83277344 -0.04445312 3.72804688 -0.03515625 2.58984375 C-0.02355469 1.73519531 -0.01195312 0.88054688 0 0 Z M6 4 C6 4.33 6 4.66 6 5 C7.98 5 9.96 5 12 5 C12 4.67 12 4.34 12 4 C10.02 4 8.04 4 6 4 Z " fill="#2B2A4A" transform="translate(172,26)"/>
<path d="M0 0 C4.95 0 9.9 0 15 0 C14.70703125 1.92057292 14.4140625 3.84114583 14.12109375 5.76171875 C13.88082244 8.48225809 13.88082244 8.48225809 15 13 C10.05 13 5.1 13 0 13 C0 8.71 0 4.42 0 0 Z " fill="#272647" transform="translate(156,26)"/>
<path d="M0 0 C6.4 0.49230769 6.4 0.49230769 9.4375 3.0625 C10.2109375 4.0215625 10.2109375 4.0215625 11 5 C11.33 3.35 11.66 1.7 12 0 C13.98 0 15.96 0 18 0 C18 3.96 18 7.92 18 12 C13 13 13 13 10.98046875 11.78515625 C10.38878906 11.21667969 9.79710937 10.64820313 9.1875 10.0625 C8.58292969 9.49660156 7.97835937 8.93070313 7.35546875 8.34765625 C6.90816406 7.90292969 6.46085938 7.45820313 6 7 C5.67 8.98 5.34 10.96 5 13 C3.35 13 1.7 13 0 13 C0 8.71 0 4.42 0 0 Z " fill="#1C1C3C" transform="translate(164,11)"/>
<path d="M0 0 C6.4 0.49230769 6.4 0.49230769 9.4375 3.0625 C10.2109375 4.0215625 10.2109375 4.0215625 11 5 C11.33 3.35 11.66 1.7 12 0 C13.98 0 15.96 0 18 0 C18 3.96 18 7.92 18 12 C13 13 13 13 10.98046875 11.78515625 C10.38878906 11.21667969 9.79710938 10.64820313 9.1875 10.0625 C8.58292969 9.49660156 7.97835937 8.93070313 7.35546875 8.34765625 C6.90816406 7.90292969 6.46085937 7.45820312 6 7 C5.67 8.98 5.34 10.96 5 13 C3.35 13 1.7 13 0 13 C0 8.71 0 4.42 0 0 Z " fill="#282749" transform="translate(117,26)"/>
<path d="M0 0 C4.95 0 9.9 0 15 0 C14.70703125 1.92057292 14.4140625 3.84114583 14.12109375 5.76171875 C13.88082244 8.48225809 13.88082244 8.48225809 15 13 C10.05 13 5.1 13 0 13 C0 8.71 0 4.42 0 0 Z " fill="#292849" transform="translate(110,11)"/>
<path d="M0 0 C1.40765625 0.00580078 1.40765625 0.00580078 2.84375 0.01171875 C5.57176487 0.32062632 7.23101781 0.78093702 9.5 2.3125 C10.5 5.1875 10.5 5.1875 10.5 8.3125 C8.31567858 11.19892473 6.94696406 12.16351198 3.5 13.3125 C-1.53274337 13.68529581 -4.40672968 13.32225759 -8.5 10.3125 C-9.5 9.3125 -9.5 9.3125 -9.8125 6.4375 C-9.5 3.3125 -9.5 3.3125 -7.82421875 1.63671875 C-5.00545759 0.0307355 -3.22644003 -0.057615 0 0 Z M-4.5 5.3125 C-3.84 6.6325 -3.18 7.9525 -2.5 9.3125 C-0.52 9.3125 1.46 9.3125 3.5 9.3125 C3.83 7.6625 4.16 6.0125 4.5 4.3125 C0.72102349 3.2627843 -1.14919071 3.20273119 -4.5 5.3125 Z " fill="#232240" transform="translate(192.5,10.6875)"/>
<path d="M0 0 C12.38114251 -0.40816953 12.38114251 -0.40816953 17 3 C18.125 4.875 18.125 4.875 18 7 C15.26335466 10.36216428 13.26674813 12.27708872 9 13 C7.41788427 13.06548492 5.83329919 13.08578381 4.25 13.0625 C2.14625 13.0315625 2.14625 13.0315625 0 13 C0 8.71 0 4.42 0 0 Z M5 4 C5 5.65 5 7.3 5 9 C6.98 8.67 8.96 8.34 11 8 C11 6.68 11 5.36 11 4 C9.02 4 7.04 4 5 4 Z " fill="#1C1B3D" transform="translate(137,26)"/>
<path d="M0 0 C1.65 0 3.3 0 5 0 C5 1.32 5 2.64 5 4 C6.98 4 8.96 4 11 4 C11 2.68 11 1.36 11 0 C12.98 0 14.96 0 17 0 C17.02686553 1.97909398 17.04633375 3.95828971 17.0625 5.9375 C17.07410156 7.03964844 17.08570313 8.14179688 17.09765625 9.27734375 C17 12 17 12 16 13 C14.33382885 13.04063832 12.66611905 13.042721 11 13 C11 11.35 11 9.7 11 8 C9.02 8 7.04 8 5 8 C5 9.65 5 11.3 5 13 C3.35 13 1.7 13 0 13 C0 8.71 0 4.42 0 0 Z " fill="#222241" transform="translate(145,11)"/>
<path d="M0 0 C5.28 0 10.56 0 16 0 C15.67 2.64 15.34 5.28 15 8 C12.03 8 9.06 8 6 8 C6 9.65 6 11.3 6 13 C4.33388095 13.042721 2.66617115 13.04063832 1 13 C0 12 0 12 -0.09765625 9.27734375 C-0.06510417 6.18489583 -0.03255208 3.09244792 0 0 Z " fill="#5D5C70" transform="translate(92,26)"/>
<path d="M0 0 C1.58167969 0.02320313 1.58167969 0.02320313 3.1953125 0.046875 C5.875 0.25 5.875 0.25 7.875 1.25 C7.545 2.24 7.215 3.23 6.875 4.25 C3.52867153 5.36544282 2.23586161 4.92217232 -1.125 4.25 C-2.115 4.58 -3.105 4.91 -4.125 5.25 C-3.795 6.24 -3.465 7.23 -3.125 8.25 C-2.49851563 8.23839844 -1.87203125 8.22679687 -1.2265625 8.21484375 C-0.40929687 8.20582031 0.40796875 8.19679688 1.25 8.1875 C2.06210938 8.17589844 2.87421875 8.16429687 3.7109375 8.15234375 C5.875 8.25 5.875 8.25 7.875 9.25 C7.875 9.91 7.875 10.57 7.875 11.25 C3.74089566 13.25441422 0.45004719 13.65848636 -4.125 13.25 C-6.43779611 12.09360194 -8.29909828 11.07590172 -10.125 9.25 C-10.4375 6.375 -10.4375 6.375 -10.125 3.25 C-6.97125022 0.01345488 -4.39701211 -0.1080347 0 0 Z " fill="#1E1E3D" transform="translate(136.125,10.75)"/>
<path d="M0 0 C0 0.66 0 1.32 0 2 C-0.66 2 -1.32 2 -2 2 C-2.66 5.63 -3.32 9.26 -4 13 C-2.02 13 -0.04 13 2 13 C1.67 14.98 1.34 16.96 1 19 C1.66 19 2.32 19 3 19 C3.33 17.68 3.66 16.36 4 15 C4.33 15 4.66 15 5 15 C4.63662961 21.41954359 4.63662961 21.41954359 1.875 23.9375 C-1.56701208 25.20954794 -4.35841574 25.21421084 -8 25 C-7.67 22.36 -7.34 19.72 -7 17 C-7.99 16.67 -8.98 16.34 -10 16 C-8.02 15.67 -6.04 15.34 -4 15 C-4.66 14.34 -5.32 13.68 -6 13 C-6.16814149 8.85251003 -5.59376795 5.0584559 -3.5625 1.4375 C-2 0 -2 0 0 0 Z " fill="#17B097" transform="translate(53,14)"/>
<path d="M0 0 C0.66 0.33 1.32 0.66 2 1 C4.3329866 1.04022391 6.66706666 1.04320247 9 1 C10.33333333 3.66666667 11.66666667 6.33333333 13 9 C11.741875 9.020625 10.48375 9.04125 9.1875 9.0625 C8.47980469 9.07410156 7.77210937 9.08570313 7.04296875 9.09765625 C5 9 5 9 2 8 C2 10.97 2 13.94 2 17 C3.65 17.33 5.3 17.66 7 18 C5.02 18.99 5.02 18.99 3 20 C3.33 21.65 3.66 23.3 4 25 C3.01 24.67 2.02 24.34 1 24 C0.4375 22.125 0.4375 22.125 0 20 C-2.0072908 16.9890638 -2.83884224 16.36983503 -6 15 C-6 14.34 -6 13.68 -6 13 C-5.34 13 -4.68 13 -4 13 C-4 9.7 -4 6.4 -4 3 C-3.67 3 -3.34 3 -3 3 C-2.95101562 3.63808594 -2.90203125 4.27617187 -2.8515625 4.93359375 C-2.77679688 5.75988281 -2.70203125 6.58617187 -2.625 7.4375 C-2.55539063 8.26121094 -2.48578125 9.08492187 -2.4140625 9.93359375 C-2.27742188 10.61550781 -2.14078125 11.29742187 -2 12 C-1.34 12.33 -0.68 12.66 0 13 C0 8.71 0 4.42 0 0 Z M4 4 C8 5 8 5 8 5 Z " fill="#393852" transform="translate(37,21)"/>
<path d="M0 0 C5.61 0 11.22 0 17 0 C16.67 1.32 16.34 2.64 16 4 C14.35 4 12.7 4 11 4 C11 6.97 11 9.94 11 13 C9.35 13 7.7 13 6 13 C6 10.03 6 7.06 6 4 C4.35 4 2.7 4 1 4 C0.67 2.68 0.34 1.36 0 0 Z " fill="#373754" transform="translate(92,11)"/>
<path d="M0 0 C1.98 0 3.96 0 6 0 C6 3.96 6 7.92 6 12 C4.35 12.33 2.7 12.66 1 13 C0 12 0 12 -0.09765625 9.27734375 C-0.08605469 8.17519531 -0.07445313 7.07304688 -0.0625 5.9375 C-0.05347656 4.83277344 -0.04445313 3.72804688 -0.03515625 2.58984375 C-0.02355469 1.73519531 -0.01195313 0.88054688 0 0 Z " fill="#2A2A49" transform="translate(109,26)"/>
<path d="M0 0 C4.29 0 8.58 0 13 0 C13 0.33 13 0.66 13 1 C9.7 1 6.4 1 3 1 C3 1.99 3 2.98 3 4 C6.3 4 9.6 4 13 4 C13 4.99 13 5.98 13 7 C9.7 7 6.4 7 3 7 C3 8.32 3 9.64 3 11 C2.01 11 1.02 11 0 11 C0 7.37 0 3.74 0 0 Z " fill="#100F37" transform="translate(94,27)"/>
<path d="M0 0 C2.97 0 5.94 0 9 0 C9 0.66 9 1.32 9 2 C10.32 2.33 11.64 2.66 13 3 C12.01 3.66 11.02 4.32 10 5 C9.071875 6.051875 9.071875 6.051875 8.125 7.125 C6 9 6 9 3.375 9.4375 C2.59125 9.293125 1.8075 9.14875 1 9 C-1 6 -1 6 -0.625 2.8125 C-0.41875 1.884375 -0.2125 0.95625 0 0 Z M3 3 C2.34 3.66 1.68 4.32 1 5 C2.65 5 4.3 5 6 5 C5.01 4.34 4.02 3.68 3 3 Z " fill="#1D1A3C" transform="translate(43,2)"/>
<path d="M0 0 C3 1 3 1 4.25 3.5 C5.86420202 6.4061227 5.86420202 6.4061227 9.6875 6.8125 C11.3271875 6.9053125 11.3271875 6.9053125 13 7 C12.01 8.485 12.01 8.485 11 10 C8.94140625 10.3984375 8.94140625 10.3984375 6.5625 10.375 C5.78003906 10.38273437 4.99757812 10.39046875 4.19140625 10.3984375 C1.50146361 9.90935702 0.60796062 9.18478459 -1 7 C-1.25 3.875 -1.25 3.875 -1 1 C-0.67 0.67 -0.34 0.34 0 0 Z " fill="#161537" transform="translate(184,13)"/>
<path d="M0 0 C-0.06960937 0.73605469 -0.13921875 1.47210937 -0.2109375 2.23046875 C-0.71998174 7.84363223 -0.71998174 7.84363223 1.3359375 12.84375 C3.14937439 14.3701653 3.14937439 14.3701653 6 16 C5.01 16.99 4.02 17.98 3 19 C1.0625 18.3125 1.0625 18.3125 -1 17 C-1.38218767 15.34385343 -1.71395102 13.67542976 -2 12 C-2.515625 11.525625 -3.03125 11.05125 -3.5625 10.5625 C-5 9 -5 9 -5.4375 6 C-5 3 -5 3 -3.0625 1.125 C-1 0 -1 0 0 0 Z M-2 2 C-2 3.98 -2 5.96 -2 8 C-1.67 8 -1.34 8 -1 8 C-1 6.02 -1 4.04 -1 2 C-1.33 2 -1.66 2 -2 2 Z " fill="#131234" transform="translate(27,20)"/>
<path d="M0 0 C2.31 0 4.62 0 7 0 C8.33333333 2.66666667 9.66666667 5.33333333 11 8 C9.741875 8.020625 8.48375 8.04125 7.1875 8.0625 C6.47980469 8.07410156 5.77210937 8.08570313 5.04296875 8.09765625 C3 8 3 8 0 7 C0 4.69 0 2.38 0 0 Z M2 3 C6 4 6 4 6 4 Z " fill="#1E2A41" transform="translate(39,22)"/>
<path d="M0 0 C4.62 0 9.24 0 14 0 C13.67 2.64 13.34 5.28 13 8 C12.67 7.01 12.34 6.02 12 5 C9.36 5 6.72 5 4 5 C4 4.01 4 3.02 4 2 C2.68 1.34 1.36 0.68 0 0 Z " fill="#2E2D4D" transform="translate(157,26)"/>
<path d="M0 0 C0.33 0.66 0.66 1.32 1 2 C1.99 1.67 2.98 1.34 4 1 C6.06145107 0.931009 8.12501401 0.91532273 10.1875 0.9375 C11.81751953 0.95103516 11.81751953 0.95103516 13.48046875 0.96484375 C14.31191406 0.97644531 15.14335938 0.98804688 16 1 C16 1.33 16 1.66 16 2 C15.35933594 2.03738281 14.71867187 2.07476562 14.05859375 2.11328125 C9.82453392 2.43509504 6.06343628 2.74458299 2.1875 4.5625 C-0.90844312 5.95870964 -2.66915828 6.30280379 -6 6 C-6 6.66 -6 7.32 -6 8 C-6.66 8 -7.32 8 -8 8 C-7.67 6.68 -7.34 5.36 -7 4 C-3.535 3.505 -3.535 3.505 0 3 C0 2.01 0 1.02 0 0 Z " fill="#202043" transform="translate(58,36)"/>
<path d="M0 0 C1.65 0 3.3 0 5 0 C3.68 0.33 2.36 0.66 1 1 C1 2.65 1 4.3 1 6 C3.64 5.67 6.28 5.34 9 5 C8 8 8 8 5 10 C2.73828125 10.1953125 2.73828125 10.1953125 0.3125 10.125 C-0.89986328 10.09792969 -0.89986328 10.09792969 -2.13671875 10.0703125 C-3.05904297 10.03550781 -3.05904297 10.03550781 -4 10 C-4 9.34 -4 8.68 -4 8 C-2.68 7.67 -1.36 7.34 0 7 C0 4.69 0 2.38 0 0 Z " fill="#343452" transform="translate(141,29)"/>
<path d="M0 0 C6.93 0.495 6.93 0.495 14 1 C14 1.66 14 2.32 14 3 C13.0925 3.12375 12.185 3.2475 11.25 3.375 C8.37428115 3.92802286 6.55048634 4.68078293 4 6 C3.01 6 2.02 6 1 6 C0.67 4.02 0.34 2.04 0 0 Z " fill="#0B0B34" transform="translate(58,32)"/>
<path d="M0 0 C0 2.97 0 5.94 0 9 C-1.98 9 -3.96 9 -6 9 C-6 6.36 -6 3.72 -6 1 C-1.125 0 -1.125 0 0 0 Z " fill="#0B0933" transform="translate(86,30)"/>
<path d="M0 0 C0.33 0 0.66 0 1 0 C0.63662961 6.41954359 0.63662961 6.41954359 -2.125 8.9375 C-5.56701208 10.20954794 -8.35841574 10.21421084 -12 10 C-11.67 7.36 -11.34 4.72 -11 2 C-11.99 1.67 -12.98 1.34 -14 1 C-12.68 1 -11.36 1 -10 1 C-10 3.31 -10 5.62 -10 8 C-7.69 8 -5.38 8 -3 8 C-3 7.01 -3 6.02 -3 5 C-2.34 5 -1.68 5 -1 5 C-0.67 3.35 -0.34 1.7 0 0 Z " fill="#3CAC9D" transform="translate(57,29)"/>
<path d="M0 0 C1.32 0 2.64 0 4 0 C4 3.63 4 7.26 4 11 C2.68 11 1.36 11 0 11 C-1.28571429 3.57142857 -1.28571429 3.57142857 0 0 Z " fill="#0D0B33" transform="translate(157,12)"/>
<path d="M0 0 C3.96 0 7.92 0 12 0 C11.67 1.32 11.34 2.64 11 4 C8.36 4.33 5.72 4.66 3 5 C2.01 3.35 1.02 1.7 0 0 Z " fill="#0E0E35" transform="translate(39,40)"/>
<path d="M0 0 C2.31 0 4.62 0 7 0 C6.01 0.33 5.02 0.66 4 1 C4.33 3.97 4.66 6.94 5 10 C3.35 10 1.7 10 0 10 C0 6.7 0 3.4 0 0 Z " fill="#090932" transform="translate(137,27)"/>
<path d="M0 0 C1.9453125 -0.29296875 1.9453125 -0.29296875 4.125 -0.1875 C5.40375 -0.125625 6.6825 -0.06375 8 0 C8 3.63 8 7.26 8 11 C7.67 11 7.34 11 7 11 C6.67 8.36 6.34 5.72 6 3 C4.35 3 2.7 3 1 3 C1 5.64 1 8.28 1 11 C0.67 11 0.34 11 0 11 C-1.7578125 5.04296875 -1.7578125 5.04296875 -2 3 C-1.34 2.01 -0.68 1.02 0 0 Z " fill="#27263F" transform="translate(79,28)"/>
<path d="M0 0 C1.18851563 0.00902344 2.37703125 0.01804687 3.6015625 0.02734375 C4.51679687 0.03894531 5.43203125 0.05054687 6.375 0.0625 C6.375 1.0525 6.375 2.0425 6.375 3.0625 C4.25027424 3.11636629 2.12516348 3.15523071 0 3.1875 C-1.77503906 3.22230469 -1.77503906 3.22230469 -3.5859375 3.2578125 C-6.625 3.0625 -6.625 3.0625 -8.625 1.0625 C-5.74084117 -0.37957941 -3.20778472 -0.03144887 0 0 Z " fill="#26253D" transform="translate(68.625,29.9375)"/>
<path d="M0 0 C0.66 0.33 1.32 0.66 2 1 C1.34 2.32 0.68 3.64 0 5 C1.32 5.66 2.64 6.32 4 7 C3.01 7 2.02 7 1 7 C0.67 8.65 0.34 10.3 0 12 C-0.66 11.67 -1.32 11.34 -2 11 C-1.67 9.68 -1.34 8.36 -1 7 C-2.65 7 -4.3 7 -6 7 C-4.77065985 3.31197956 -3.06140622 2.27643027 0 0 Z " fill="#2F2E4A" transform="translate(17,11)"/>
<path d="M0 0 C0 2.97 0 5.94 0 9 C-1.98 9.99 -1.98 9.99 -4 11 C-5.41441874 8.17116253 -5.31900332 6.12623255 -5 3 C-1.9 0 -1.9 0 0 0 Z M-2 2 C-2 3.98 -2 5.96 -2 8 C-1.67 8 -1.34 8 -1 8 C-1 6.02 -1 4.04 -1 2 C-1.33 2 -1.66 2 -2 2 Z " fill="#302E47" transform="translate(27,20)"/>
<path d="M0 0 C0.33 0 0.66 0 1 0 C1.04898438 0.63808594 1.09796875 1.27617187 1.1484375 1.93359375 C1.22320312 2.75988281 1.29796875 3.58617187 1.375 4.4375 C1.44460937 5.26121094 1.51421875 6.08492187 1.5859375 6.93359375 C1.72257812 7.61550781 1.85921875 8.29742187 2 9 C2.66 9.33 3.32 9.66 4 10 C4 10.99 4 11.98 4 13 C2.68 13.33 1.36 13.66 0 14 C-0.66 12.68 -1.32 11.36 -2 10 C-1.34 10 -0.68 10 0 10 C0 6.7 0 3.4 0 0 Z " fill="#252447" transform="translate(33,24)"/>
<path d="M0 0 C5.75 -0.125 5.75 -0.125 8 1 C7.67 1.99 7.34 2.98 7 4 C4 5 4 5 1.8125 4.0625 C1.214375 3.711875 0.61625 3.36125 0 3 C0 2.01 0 1.02 0 0 Z " fill="#292843" transform="translate(136,11)"/>
<path d="M0 0 C1.65 0 3.3 0 5 0 C5.33 0.66 5.66 1.32 6 2 C5.67 2.99 5.34 3.98 5 5 C3.35 4.67 1.7 4.34 0 4 C0 2.68 0 1.36 0 0 Z " fill="#0F0D32" transform="translate(53,5)"/>
<path d="M0 0 C1.63001953 0.01353516 1.63001953 0.01353516 3.29296875 0.02734375 C4.12441406 0.03894531 4.95585938 0.05054688 5.8125 0.0625 C5.8125 0.3925 5.8125 0.7225 5.8125 1.0625 C5.13703125 1.11148438 4.4615625 1.16046875 3.765625 1.2109375 C2.87359375 1.28570312 1.9815625 1.36046875 1.0625 1.4375 C0.18078125 1.50710937 -0.7009375 1.57671875 -1.609375 1.6484375 C-4.19669794 1.9269951 -4.19669794 1.9269951 -6.328125 3.1640625 C-8.1875 4.0625 -8.1875 4.0625 -11.1875 3.0625 C-10.5275 3.0625 -9.8675 3.0625 -9.1875 3.0625 C-9.1875 2.4025 -9.1875 1.7425 -9.1875 1.0625 C-5.90230525 -0.03256492 -3.45086585 -0.03710608 0 0 Z " fill="#333252" transform="translate(68.1875,36.9375)"/>
<path d="M0 0 C1.98 0 3.96 0 6 0 C5.67 1.32 5.34 2.64 5 4 C3.35 4 1.7 4 0 4 C0 2.68 0 1.36 0 0 Z " fill="#1D1B30" transform="translate(44,7)"/>
<path d="M0 0 C0.99 0.33 1.98 0.66 3 1 C3 2.65 3 4.3 3 6 C1.68 6 0.36 6 -1 6 C-0.67 4.02 -0.34 2.04 0 0 Z " fill="#18173C" transform="translate(28,25)"/>
<path d="M0 0 C1.98 0 3.96 0 6 0 C6.33 0.66 6.66 1.32 7 2 C4.36 2.33 1.72 2.66 -1 3 C-0.67 2.01 -0.34 1.02 0 0 Z " fill="#0C0B32" transform="translate(134,20)"/>
<path d="M0 0 C1.485 0.99 1.485 0.99 3 2 C3.1875 5.125 3.1875 5.125 3 8 C2.01 8 1.02 8 0 8 C0 5.36 0 2.72 0 0 Z " fill="#0A0933" transform="translate(99,14)"/>
<path d="M0 0 C0.99 0.33 1.98 0.66 3 1 C3 1.66 3 2.32 3 3 C3.66 3.33 4.32 3.66 5 4 C3.02 4.33 1.04 4.66 -1 5 C-1.33 3.68 -1.66 2.36 -2 1 C-1.34 0.67 -0.68 0.34 0 0 Z " fill="#353552" transform="translate(187,11)"/>
<path d="M0 0 C1.98 0 3.96 0 6 0 C6 0.99 6 1.98 6 3 C4.35 3 2.7 3 1 3 C0.67 2.01 0.34 1.02 0 0 Z " fill="#0E0D34" transform="translate(189,11)"/>
<path d="M0 0 C1.65 0 3.3 0 5 0 C3.95125002 2.62187494 3.35068687 3.79371361 0.875 5.25 C0.25625 5.4975 -0.3625 5.745 -1 6 C-0.67 4.02 -0.34 2.04 0 0 Z " fill="#2C2A4A" transform="translate(43,2)"/>
</svg>
